<svg xmlns="http://www.w3.org/2000/svg" width="51.007" height="49.165" viewBox="0 0 51.007 49.165">
  <g id="noun_Mobile_tablet_3415044" data-name="noun_Mobile tablet_3415044" transform="translate(-3.317 -38.427)">
    <g id="Group_61" data-name="Group 61" transform="translate(3.417 38.527)">
      <path id="Path_78" data-name="Path 78" d="M138.159,361.151h-5.045a2.015,2.015,0,0,0-2.012,2.013v2.078a2.015,2.015,0,0,0,2.012,2.013h5.045a2.015,2.015,0,0,0,2.011-2.013v-2.078A2.015,2.015,0,0,0,138.159,361.151Zm.281,4.091a.28.28,0,0,1-.281.281h-5.045a.281.281,0,0,1-.282-.281v-2.078a.281.281,0,0,1,.282-.281h5.045a.28.28,0,0,1,.281.281Z" transform="translate(-119.76 -324.831)" fill="#58e2c2" stroke="#59e2c2" stroke-width="0.2"/>
      <path id="Path_79" data-name="Path 79" d="M78.445,41.735H61.918v-.264a2.949,2.949,0,0,0-2.944-2.944H33.292a2.948,2.948,0,0,0-2.944,2.944V81.338a2.949,2.949,0,0,0,2.944,2.946H55.984v.5a2.71,2.71,0,0,0,2.707,2.708H78.445a2.712,2.712,0,0,0,2.71-2.708V44.443A2.712,2.712,0,0,0,78.445,41.735Zm-4.894,1.73-.492,1.145H66.016l-.492-1.145ZM51.994,40.257l-.733,1.708H42.227l-.733-1.708Zm-18.7,42.3a1.216,1.216,0,0,1-1.214-1.214V41.471a1.216,1.216,0,0,1,1.214-1.214h6.319l1.251,2.914a.865.865,0,0,0,.8.524H51.832a.865.865,0,0,0,.8-.524l1.251-2.914h5.1a1.214,1.214,0,0,1,1.212,1.214v.264h-1.5a2.71,2.71,0,0,0-2.707,2.708V82.552H33.292Zm46.131,2.232a.977.977,0,0,1-.978.976H58.691a.977.977,0,0,1-.977-.976V44.443a.979.979,0,0,1,.977-.978h4.951l1.009,2.351a.862.862,0,0,0,.794.524h8.184a.862.862,0,0,0,.794-.524l1.009-2.351h3.012a.978.978,0,0,1,.978.978V84.784Z" transform="translate(-30.348 -38.527)" fill="#58e2c2" stroke="#59e2c2" stroke-width="0.2"/>
      <path id="Path_80" data-name="Path 80" d="M341.161,402.312h-4.178a1.819,1.819,0,0,0-1.816,1.814v1.721a1.819,1.819,0,0,0,1.816,1.814h4.178a1.818,1.818,0,0,0,1.814-1.814v-1.721A1.818,1.818,0,0,0,341.161,402.312Zm.082,3.536a.081.081,0,0,1-.082.082l-4.262-.082.084-1.8,4.26.082v1.721Z" transform="translate(-300.851 -361.358)" fill="#58e2c2" stroke="#59e2c2" stroke-width="0.2"/>
    </g>
  </g>
</svg>
