<?xml version="1.0" encoding="utf-8"?>
<!-- Generator: Adobe Illustrator 23.0.1, SVG Export Plug-In . SVG Version: 6.00 Build 0)  -->
<svg version="1.1" id="Capa_1" xmlns="http://www.w3.org/2000/svg" xmlns:xlink="http://www.w3.org/1999/xlink" x="0px" y="0px"
	 viewBox="0 0 215.4 215.4" style="enable-background:new 0 0 215.4 215.4;" xml:space="preserve">
<style type="text/css">
	.st0{fill:#718096;}
</style>
<g>
	<path class="st0" d="M7.5,65.1c4.1,0,7.5-3.4,7.5-7.5v-32l48.3,48.3c1.5,1.5,3.4,2.2,5.3,2.2c1.9,0,3.8-0.7,5.3-2.2
		c2.9-2.9,2.9-7.7,0-10.6L25.6,15h32c4.1,0,7.5-3.4,7.5-7.5S61.7,0,57.6,0H7.5C3.4,0,0,3.4,0,7.5v50.1C0,61.7,3.4,65.1,7.5,65.1z"/>
	<path class="st0" d="M207.9,150.3c-4.1,0-7.5,3.4-7.5,7.5v32l-49.8-49.8c-2.9-2.9-7.7-2.9-10.6,0s-2.9,7.7,0,10.6l49.8,49.8h-32
		c-4.1,0-7.5,3.4-7.5,7.5s3.4,7.5,7.5,7.5h50.1c4.1,0,7.5-3.4,7.5-7.5v-50.1C215.4,153.6,212,150.3,207.9,150.3z"/>
	<path class="st0" d="M64.8,139.9L15,189.7v-32c0-4.1-3.4-7.5-7.5-7.5S0,153.6,0,157.8v50.1c0,4.1,3.4,7.5,7.5,7.5h50.1
		c4.1,0,7.5-3.4,7.5-7.5s-3.4-7.5-7.5-7.5h-32l49.8-49.8c2.9-2.9,2.9-7.7,0-10.6C72.5,137,67.7,137,64.8,139.9z"/>
	<path class="st0" d="M207.9,0h-50.1c-4.1,0-7.5,3.4-7.5,7.5s3.4,7.5,7.5,7.5h32l-48.3,48.3c-2.9,2.9-2.9,7.7,0,10.6
		c1.5,1.5,3.4,2.2,5.3,2.2c1.9,0,3.8-0.7,5.3-2.2l48.3-48.3v32c0,4.1,3.4,7.5,7.5,7.5s7.5-3.4,7.5-7.5V7.5C215.4,3.4,212,0,207.9,0z
		"/>
</g>
</svg>
