<svg xmlns="http://www.w3.org/2000/svg" width="10.987" height="16.847" viewBox="0 0 10.987 16.847">
  <g id="pdf" transform="translate(-1.831 -3.296)">
    <g id="Group_18" data-name="Group 18" transform="translate(1.831 15.748)">
      <path id="Path_38" data-name="Path 38" d="M44.5,383.981a.366.366,0,0,1-.366-.366v-3.662a.366.366,0,0,1,.733,0v3.662A.366.366,0,0,1,44.5,383.981Zm0,0" transform="translate(-44.137 -379.586)" fill="#fff"/>
      <path id="Path_39" data-name="Path 39" d="M240.907,380.318h-2.2a.366.366,0,1,1,0-.733h2.2a.366.366,0,1,1,0,.733Zm0,0" transform="translate(-230.287 -379.586)" fill="#fff"/>
      <path id="Path_40" data-name="Path 40" d="M240.907,424.455h-2.2a.366.366,0,1,1,0-.733h2.2a.366.366,0,1,1,0,.733Zm0,0" transform="translate(-230.287 -421.892)" fill="#fff"/>
      <path id="Path_41" data-name="Path 41" d="M238.71,383.981a.366.366,0,0,1-.366-.366v-3.662a.366.366,0,0,1,.732,0v3.662A.366.366,0,0,1,238.71,383.981Zm0,0" transform="translate(-230.287 -379.586)" fill="#fff"/>
    </g>
    <path id="Path_42" data-name="Path 42" d="M83.206,80.1a.856.856,0,0,0,.035,1.159c.346-.762-.019-1.164-.035-1.159m.222,3.05a25.541,25.541,0,0,1-.976,2.726,18.412,18.412,0,0,1,2.371-.728,12.334,12.334,0,0,1-1.395-2m2.726,2.372c.3.226.37.34.565.34a.465.465,0,0,0,.525-.308c-.045-.024-.1-.071-.429-.071a5.351,5.351,0,0,0-.661.039m-4.977,1.6c-.78.433-1.1.788-1.121.989,0,.033-.014.121.157.249.055-.017.372-.16.964-1.238m-.972,1.847a.591.591,0,0,1-.353-.117.861.861,0,0,1-.407-.809c.066-.586.8-1.2,2.184-1.827a24,24,0,0,0,1.383-3.875,3.525,3.525,0,0,1-.46-2.394.7.7,0,0,1,.414-.438,1.838,1.838,0,0,1,.371-.061c.192,0,.375.229.464.377a1.484,1.484,0,0,1,.14.907,8.04,8.04,0,0,1-.135.9c-.043.217-.092.434-.144.65A11.5,11.5,0,0,0,85.518,85a7.2,7.2,0,0,1,1.226-.129c.571,0,.918.131,1.059.4a.722.722,0,0,1-.142.779.972.972,0,0,1-.81.429,2.436,2.436,0,0,1-1.537-.824,17.663,17.663,0,0,0-3.222,1.017,10.2,10.2,0,0,1-.87,1.532c-.373.519-.7.76-1.015.76" transform="translate(-76.145 -76.153)" fill="#b53438"/>
    <path id="Path_43" data-name="Path 43" d="M45.6,382.516H44.5a.366.366,0,0,1-.366-.366v-2.2a.366.366,0,0,1,.366-.366h1.1a1.465,1.465,0,0,1,0,2.93Zm-.733-.733H45.6a.732.732,0,0,0,0-1.465h-.733Zm0,0" transform="translate(-42.306 -363.838)" fill="#fff"/>
    <path id="Path_44" data-name="Path 44" d="M141.975,383.981h-.366a.366.366,0,0,1-.366-.366v-3.662a.366.366,0,0,1,.366-.366h.366a2.2,2.2,0,0,1,0,4.395Zm0-.732h0Zm0-2.93v2.93a1.465,1.465,0,0,0,0-2.93Zm0,0" transform="translate(-135.382 -363.838)" fill="#fff"/>
  </g>
</svg>
