<svg xmlns="http://www.w3.org/2000/svg" width="40" height="40" viewBox="0 0 40 40">
  <path id="Subtraction_1" data-name="Subtraction 1" d="M-979,911a19.875,19.875,0,0,1-7.785-1.572,19.935,19.935,0,0,1-6.357-4.286,19.933,19.933,0,0,1-4.286-6.357A19.875,19.875,0,0,1-999,891a19.875,19.875,0,0,1,1.572-7.785,19.934,19.934,0,0,1,4.286-6.357,19.934,19.934,0,0,1,6.357-4.286A19.875,19.875,0,0,1-979,871a19.875,19.875,0,0,1,7.785,1.572,19.933,19.933,0,0,1,6.357,4.286,19.935,19.935,0,0,1,4.286,6.357A19.875,19.875,0,0,1-959,891a19.875,19.875,0,0,1-1.572,7.785,19.933,19.933,0,0,1-4.286,6.357,19.933,19.933,0,0,1-6.357,4.286A19.875,19.875,0,0,1-979,911Zm.187-31.5a7.342,7.342,0,0,0-1.24.106,3.805,3.805,0,0,0-3.258,3.187,10.274,10.274,0,0,0-.045,3.822,14.068,14.068,0,0,0,2.049,5.776.582.582,0,0,1,.1.212,1.749,1.749,0,0,1-.787,1.561,11.1,11.1,0,0,1-1.132.493,13.707,13.707,0,0,0-4.194,1.716l-.014.009a5.624,5.624,0,0,0-2.047,1.809,7.656,7.656,0,0,0-.973,3.05l0,.015a12.524,12.524,0,0,0-.147,1.823l23.577-.012c-.022-.235-.041-.469-.06-.7-.041-.5-.08-.977-.15-1.462a5.49,5.49,0,0,0-2.881-4.432,34.356,34.356,0,0,0-3.881-1.651,15.338,15.338,0,0,1-1.606-.686,1.971,1.971,0,0,1-.738-1.778.935.935,0,0,1,.09-.186c.117-.246.242-.492.363-.73l.005-.01a14.618,14.618,0,0,0,.74-1.617,13.736,13.736,0,0,0,.849-6.568,3.892,3.892,0,0,0-2.975-3.563A7.326,7.326,0,0,0-978.813,879.5Z" transform="translate(999 -871)" fill="#1f4286"/>
</svg>
