<?xml version="1.0" encoding="utf-8"?>
<!-- Generator: Adobe Illustrator 23.0.1, SVG Export Plug-In . SVG Version: 6.00 Build 0)  -->
<svg version="1.1" id="Capa_1" xmlns="http://www.w3.org/2000/svg" xmlns:xlink="http://www.w3.org/1999/xlink" x="0px" y="0px"
	 viewBox="0 0 512 512" style="enable-background:new 0 0 512 512;" xml:space="preserve">
<style type="text/css">
	.st0{fill:#FFFFFF;}
</style>
<path class="st0" d="M256,182.5c-40.5,0-73.5,33-73.5,73.5c0,40.5,33,73.5,73.5,73.5c40.5,0,73.5-33,73.5-73.5
	C329.5,215.5,296.5,182.5,256,182.5z M256,302.5c-25.6,0-46.5-20.9-46.5-46.5c0-25.6,20.9-46.5,46.5-46.5
	c25.6,0,46.5,20.9,46.5,46.5C302.5,281.6,281.6,302.5,256,302.5z"/>
<path class="st0" d="M498.2,320.8l-54.7-41.9l0.4-3.6c1.4-12.8,1.4-25.8,0-38.5l-0.4-3.6l54.7-41.9c5.4-4.1,6.9-11.7,3.4-17.6
	l-50.2-85c-3.4-5.7-10.4-8.1-16.6-5.7l-64.7,25.5l-2.9-2.1c-10.8-7.7-22.5-14.4-34.7-19.7l-3.3-1.4l-9.7-67.2
	c-1-6.6-6.7-11.6-13.4-11.6H205.8c-6.7,0-12.4,5-13.4,11.6l-9.7,67.2l-3.3,1.4c-12.2,5.3-23.9,11.9-34.7,19.7l-2.9,2.1L77.1,83
	c-6.2-2.4-13.2,0-16.6,5.7l-50.2,85c-3.5,5.9-2,13.4,3.4,17.6l54.7,41.9l-0.4,3.6c-1.4,12.8-1.4,25.8,0,38.5l0.4,3.6l-54.7,41.9
	c-5.4,4.1-6.9,11.7-3.4,17.6l50.2,85c3.4,5.7,10.4,8.1,16.6,5.7l64.7-25.5l2.9,2.1c10.8,7.7,22.5,14.4,34.7,19.7l3.3,1.4l9.7,67.2
	c1,6.6,6.7,11.6,13.4,11.6h100.3c6.7,0,12.4-5,13.4-11.6l9.7-67.2l3.3-1.4c12.2-5.3,23.9-11.9,34.7-19.7l2.9-2.1l64.7,25.5
	c6.2,2.4,13.2,0,16.6-5.7l50.2-85C505.1,332.5,503.6,324.9,498.2,320.8z M434.1,399.7l-61.2-24.1c-4.5-1.8-9.7-1-13.5,2.1
	c-14.1,11.4-29.9,20.4-47,26.6c-4.7,1.7-8,5.8-8.8,10.8l-9.2,63.5h-76.9l-9.2-63.5c-0.7-4.9-4.1-9.1-8.8-10.8
	c-17.1-6.2-32.9-15.1-47-26.6c-3.8-3.1-8.9-3.9-13.5-2.1l-61.2,24.1L39.7,335l51.5-39.5c4-3.1,5.9-8,5.1-13c-3-17.6-3-35.4,0-52.9
	c0.9-5-1.1-9.9-5.1-13L39.7,177l38.2-64.8l61.2,24.1c4.5,1.8,9.7,1,13.5-2.1c14.1-11.4,29.9-20.4,47-26.6c4.7-1.7,8-5.8,8.8-10.8
	l9.2-63.5h76.9l9.2,63.5c0.7,4.9,4.1,9.1,8.8,10.8c17.1,6.2,32.9,15.1,47,26.6c3.8,3.1,8.9,3.9,13.5,2.1l61.2-24.1l38.2,64.8
	l-51.5,39.5c-4,3.1-5.9,8-5.1,13c3,17.6,3,35.4,0,52.9c-0.9,5,1.1,9.9,5.1,13l51.5,39.5L434.1,399.7z"/>
</svg>
