<svg xmlns="http://www.w3.org/2000/svg" width="24.879" height="57.401" viewBox="0 0 24.879 57.401">
  <g id="temperature" transform="translate(0 0)">
    <g id="Group_28" data-name="Group 28" transform="translate(5.737 7.652)">
      <g id="Group_27" data-name="Group 27">
        <path id="Path_66" data-name="Path 66" d="M193.509,95.252V64.942a.957.957,0,0,0-.281-.677.822.822,0,0,0-.675-.279L188.725,64a.957.957,0,0,0-.957.957v30.3a6.7,6.7,0,0,0,1.446,12.6,6.988,6.988,0,0,0,1.415.148,6.7,6.7,0,0,0,2.88-12.745Zm1.641,7.64a4.777,4.777,0,0,1-1.5,2.121v0a4.78,4.78,0,1,1-4.613-8.216.957.957,0,0,0,.643-.9V65.909l1.914-.01V95.894a.957.957,0,0,0,.642.9A4.776,4.776,0,0,1,195.15,102.891Z" transform="translate(-183.936 -63.984)" fill="#1c7dec"/>
      </g>
    </g>
    <g id="Group_30" data-name="Group 30" transform="translate(0 0)">
      <g id="Group_29" data-name="Group 29">
        <path id="Path_67" data-name="Path 67" d="M158.887,38.264a12.439,12.439,0,0,0-3.784-3.784V28.7h2.87a.957.957,0,1,0,0-1.914H155.1V24.876h2.87a.957.957,0,1,0,0-1.914H155.1V21.049h2.87a.957.957,0,1,0,0-1.914H155.1V17.222h2.87a.957.957,0,1,0,0-1.914H155.1V13.395h2.87a.957.957,0,1,0,0-1.914H155.1V6.7a6.7,6.7,0,0,0-13.395,0V34.481a12.438,12.438,0,1,0,17.178,3.784ZM148.406,55.492a10.524,10.524,0,0,1-5.262-19.646.957.957,0,0,0,.478-.829V6.7a4.784,4.784,0,1,1,9.568,0v28.32a.957.957,0,0,0,.478.829,10.524,10.524,0,0,1-5.262,19.646Z" transform="translate(-135.967)" fill="#1c7dec"/>
      </g>
    </g>
  </g>
</svg>
