<svg xmlns="http://www.w3.org/2000/svg" width="43.501" height="43.498" viewBox="0 0 43.501 43.498">
  <g id="Group_25" data-name="Group 25" transform="translate(-3554.995 -1891)">
    <path id="Path_55" data-name="Path 55" d="M232.7,290.175a2.175,2.175,0,1,0-4.35,0,8.22,8.22,0,0,1-1.81,5.315,13.034,13.034,0,0,0,0,15.461,8.726,8.726,0,0,1,0,10.64,12.493,12.493,0,0,0-2.54,7.732,2.175,2.175,0,1,0,4.35,0,8.228,8.228,0,0,1,1.81-5.32,13.05,13.05,0,0,0,0-15.466,8.72,8.72,0,0,1,0-10.635A12.48,12.48,0,0,0,232.7,290.175Z" transform="translate(3348.399 1603)" fill="#d83f74"/>
    <path id="Path_56" data-name="Path 56" d="M168.7,290.175a2.175,2.175,0,1,0-4.35,0,8.22,8.22,0,0,1-1.81,5.315,13.034,13.034,0,0,0,0,15.461,8.726,8.726,0,0,1,0,10.64,12.493,12.493,0,0,0-2.54,7.732,2.175,2.175,0,1,0,4.35,0,8.228,8.228,0,0,1,1.81-5.32,13.05,13.05,0,0,0,0-15.466,8.72,8.72,0,0,1,0-10.635A12.48,12.48,0,0,0,168.7,290.175Z" transform="translate(3395 1603)" fill="#d83f74"/>
    <path id="Path_57" data-name="Path 57" d="M296.7,290.175a2.175,2.175,0,1,0-4.35,0,8.22,8.22,0,0,1-1.81,5.315,13.034,13.034,0,0,0,0,15.461,8.726,8.726,0,0,1,0,10.64,12.493,12.493,0,0,0-2.54,7.732,2.175,2.175,0,0,0,4.35,0,8.228,8.228,0,0,1,1.81-5.32,13.05,13.05,0,0,0,0-15.466,8.72,8.72,0,0,1,0-10.635A12.48,12.48,0,0,0,296.7,290.175Z" transform="translate(3301.799 1603)" fill="#d83f74"/>
  </g>
</svg>
