<svg xmlns="http://www.w3.org/2000/svg" xmlns:xlink="http://www.w3.org/1999/xlink" width="490" height="665" viewBox="0 0 490 665">
  <defs>
    <clipPath id="clip-path">
      <rect id="Rectangle_50" data-name="Rectangle 50" width="490" height="665" transform="translate(0 445)" fill="#fff" stroke="#707070" stroke-width="1"/>
    </clipPath>
  </defs>
  <g id="Mask_Group_6" data-name="Mask Group 6" transform="translate(0 -445)" clip-path="url(#clip-path)">
    <g id="Group_45" data-name="Group 45" transform="translate(-24.613 1317.72) rotate(-103)">
      <circle id="Ellipse_11" data-name="Ellipse 11" cx="70.626" cy="70.626" r="70.626" transform="translate(156.946 627.787) rotate(-90)" fill="#20204e"/>
      <path id="Union_5" data-name="Union 5" d="M156.943,227.577a70.385,70.385,0,0,1,5.832-28.148c-11.666-37.8-38.3-56.628-59.953-65.924a70.612,70.612,0,1,1,29.713-28.862c12.227,33.781,49.615,51.314,67.379,57.924a70.637,70.637,0,1,1-42.97,65.01Z" transform="translate(298.197 162.178) rotate(90)" fill="#20204e"/>
      <circle id="Ellipse_14" data-name="Ellipse 14" cx="70.626" cy="70.626" r="70.626" transform="translate(324.356 789.965) rotate(-90)" fill="#20204e"/>
      <circle id="Ellipse_15" data-name="Ellipse 15" cx="70.626" cy="70.626" r="70.626" transform="translate(324.356 141.252) rotate(-90)" fill="#20204e"/>
      <circle id="Ellipse_16" data-name="Ellipse 16" cx="70.626" cy="70.626" r="70.626" transform="translate(481.303 303.43) rotate(-90)" fill="#20204e"/>
      <path id="Union_8" data-name="Union 8" d="M0,70.626A70.646,70.646,0,0,0,102.817,133.5c21.654,9.294,48.289,28.126,59.956,65.93a70.211,70.211,0,0,0-5.573,22.1v.015c-.012.145-.024.293-.036.437l0,.024c-.011.14-.021.281-.032.422l0,.043c-.01.136-.019.275-.028.411l0,.051c-.008.129-.016.26-.024.389l0,.078c-.007.124-.014.251-.021.376l0,.087c-.006.12-.012.242-.018.362,0,.034,0,.068,0,.1-.005.118-.01.232-.015.35,0,.038,0,.076,0,.115,0,.116-.008.232-.012.348,0,.037,0,.075,0,.112,0,.116-.007.229-.01.344,0,.04,0,.081,0,.121,0,.116-.006.236-.008.352,0,.037,0,.072,0,.109,0,.116,0,.228-.006.344,0,.041,0,.082,0,.123,0,.109,0,.217,0,.326,0,.046,0,.092,0,.139,0,.155,0,.308,0,.463s0,.306,0,.458c0,.047,0,.094,0,.142,0,.107,0,.211,0,.318,0,.024,0,.048,0,.072,0,.28.009.564.016.843,0,.033,0,.066,0,.1,0,.121.006.239.01.359,0,.026,0,.051,0,.076,0,.125.008.253.013.378,0,.03,0,.059,0,.089,0,.123.01.247.015.369,0,.015,0,.03,0,.045.006.137.013.271.02.408,0,.03,0,.059,0,.088.006.122.013.24.019.362l.007.109c.007.117.014.232.021.349,0,.014,0,.028,0,.042.009.138.018.274.028.412l0,.021c.01.143.021.29.032.433v0q.017.224.036.447v.015a70.2,70.2,0,0,0,5.38,21.731c-6.61,17.765-24.149,55.144-57.918,67.371a70.578,70.578,0,1,0,28.853,29.715c9.294-21.654,28.122-48.289,65.926-59.956q1.2.523,2.428,1l.044.017.333.129.113.044.272.1.158.059.219.082.227.084.146.053.277.1.112.04.321.114.052.018a70.132,70.132,0,0,0,15.327,3.522h0l.434.048.024,0,.42.044.027,0,.409.04.057.005.388.036.064.006.382.033.079.006.363.029.1.008.343.025.126.009.323.021.132.008.322.019.141.008.31.017.162.008.288.014.184.008.276.011.185.007.267.009.229.007.229.007.255.006.2,0,.28,0,.183,0,.3,0,.164,0h.463a70.627,70.627,0,0,0,50.837-119.654l0,0-.166-.171-.13-.134q-.252-.258-.507-.514l-.088-.089-.088-.088q-.256-.255-.514-.507l-.134-.13-.171-.166,0,0a70.384,70.384,0,0,0-49.028-19.789h-.458l-.247,0-.209,0-.356.006-.1,0a70.34,70.34,0,0,0-26.3,5.609c-17.76-6.611-55.145-24.145-67.373-57.918A70.632,70.632,0,1,0,0,70.626Z" transform="translate(784.73 329.587) rotate(90)" fill="#20204e"/>
    </g>
  </g>
</svg>
