<svg xmlns="http://www.w3.org/2000/svg" width="368.701" height="120.212" viewBox="0 0 368.701 120.212">
  <g id="Group_57" data-name="Group 57" transform="translate(-154 -279)">
    <path id="Path_75" data-name="Path 75" d="M32.008-14.984v-4.179H9.765c.59-.849,1.18-1.829,1.769-2.808L32.008-56.713V-60.7H5.13v4.179h20.9c-.506.849-1.1,1.7-1.769,2.808L3.7-18.967v3.984Zm30,0v-25.4c0-7.249-4.634-9.6-12.133-9.6a22.94,22.94,0,0,0-12.049,3.461l2.612,3.4a17.094,17.094,0,0,1,9.016-2.808c4.634,0,6.825,1.894,6.825,6.008V-35.1a19.056,19.056,0,0,0-7.92-1.567c-7.5,0-13.144,3.461-13.144,11.167,0,7.836,4.8,11.232,11.122,11.232a15.447,15.447,0,0,0,9.942-3.592v2.873ZM56.275-21.71a13.022,13.022,0,0,1-8.931,3.526c-4.213,0-6.4-2.939-6.4-7.51,0-4.441,2.275-7.053,7.33-7.053a17.912,17.912,0,0,1,8,1.5ZM77-59c0-1.763-1.769-3.265-3.876-3.265C70.851-62.264,69-60.762,69-59s1.854,3.265,4.129,3.265C75.232-55.734,77-57.236,77-59Zm-1.18,44.015V-49.268h-5.73v34.285Zm35.135,0V-38.493c0-7.641-4.044-11.494-11.543-11.494A13.268,13.268,0,0,0,89.893-46.4v-2.873h-5.73v34.285h5.73V-41.954a10.815,10.815,0,0,1,8.089-3.984c4.971,0,7.162,2.351,7.162,7.967v22.987Zm33.956-17.371c0-10.971-4.8-17.632-13.818-17.632-8.679,0-14.324,6.53-14.324,17.893,0,12.212,6.4,17.828,14.071,17.828a18.352,18.352,0,0,0,12.891-5.094l-3.455-2.873c-3.033,2.743-5.561,3.853-9.1,3.853-5.477,0-8.341-4.832-8.763-12.212h22.412A10.639,10.639,0,0,0,144.913-32.355Zm-5.561-2.22H122.5c.506-7.771,3.792-11.3,8.426-11.3C136.4-45.873,139.015-41.171,139.352-34.575ZM170.78-49.268a15.272,15.272,0,0,0-5.392-.718,11.466,11.466,0,0,0-8.51,3.657v-2.939h-5.729v34.285h5.729v-26.84a9.306,9.306,0,0,1,6.993-3.853,11.781,11.781,0,0,1,5.308,1.045Zm28.985,31.15v-31.15h-5.729v2.612a13.823,13.823,0,0,0-9.1-3.33c-8.257,0-13.06,6.4-13.06,18.155,0,11.494,4.381,17.567,12.47,17.567a14.942,14.942,0,0,0,9.69-3.657v1.437c0,6.465-2.78,9.4-13.818,10.579l1.769,3.526C195.383-3.882,199.765-8.388,199.765-18.118Zm-5.729-3.592a12.742,12.742,0,0,1-8.341,3.4c-5.392,0-8.089-4.375-8.089-13.583,0-8.555,2.191-14.04,7.752-14.04a12.414,12.414,0,0,1,8.679,3.526Zm40.444-27.558h-6.067l-6.825,22.334c-.506,1.633-1.6,5.747-1.938,7.118-.253-1.371-1.517-5.551-2.022-7.118l-6.909-22.334h-6.067l12.133,34.676L212.151-2.9h5.729Z" transform="translate(286.802 369.645)" fill="#fff" stroke="#fff" stroke-width="2"/>
    <path id="Path_77" data-name="Path 77" d="M13.354-2.508A6.667,6.667,0,0,1,9.328-1.32,6.31,6.31,0,0,1,2.75-7.7a6.3,6.3,0,0,1,6.6-6.38,6.28,6.28,0,0,1,4.642,1.8L15-13.31a7.588,7.588,0,0,0-5.72-2.222c-4.708,0-8.14,3.322-8.14,7.832A7.743,7.743,0,0,0,9.262.132a8.5,8.5,0,0,0,5.654-1.958V-7.7H13.354ZM28.292-5.786a5.514,5.514,0,0,0-5.61-5.874,5.573,5.573,0,0,0-5.654,5.874A5.731,5.731,0,0,0,23.1.11a5.7,5.7,0,0,0,4.466-1.892l-.88-1.012a4.561,4.561,0,0,1-3.542,1.518A4.283,4.283,0,0,1,18.59-5.3h9.68C28.27-5.478,28.292-5.654,28.292-5.786Zm-5.61-4.532A4.025,4.025,0,0,1,26.8-6.468H18.59A4.019,4.019,0,0,1,22.682-10.318ZM36.036-1.826a2.585,2.585,0,0,1-1.716.594,1.853,1.853,0,0,1-2-2.112v-6.908h3.52v-1.32h-3.52V-14.1H30.756v2.53H28.688v1.32h2.068v7A3.065,3.065,0,0,0,34.144.11,3.72,3.72,0,0,0,36.586-.7ZM50.226.132A7.488,7.488,0,0,0,55.88-2.134L54.846-3.168A6.041,6.041,0,0,1,50.292-1.32,6.293,6.293,0,0,1,43.78-7.7a6.293,6.293,0,0,1,6.512-6.38,6.1,6.1,0,0,1,4.554,1.826l1.034-1.034a7.457,7.457,0,0,0-5.632-2.244A7.732,7.732,0,0,0,42.174-7.7,7.726,7.726,0,0,0,50.226.132ZM62.26.11a5.692,5.692,0,0,0,5.874-5.9A5.674,5.674,0,0,0,62.26-11.66a5.692,5.692,0,0,0-5.9,5.874A5.71,5.71,0,0,0,62.26.11Zm0-1.386a4.237,4.237,0,0,1-4.312-4.51A4.237,4.237,0,0,1,62.26-10.3a4.22,4.22,0,0,1,4.29,4.51A4.22,4.22,0,0,1,62.26-1.276ZM76.23-11.66a4.863,4.863,0,0,0-4.4,2.222v-2.134h-1.5V0H71.9V-6.072c0-2.64,1.562-4.18,4.048-4.18,2.2,0,3.476,1.254,3.476,3.7V0h1.562V-6.71C80.982-10.032,79.046-11.66,76.23-11.66Zm13.9,0a4.863,4.863,0,0,0-4.4,2.222v-2.134h-1.5V0H85.8V-6.072c0-2.64,1.562-4.18,4.048-4.18,2.2,0,3.476,1.254,3.476,3.7V0h1.562V-6.71C94.886-10.032,92.95-11.66,90.134-11.66Zm18.15,5.874a5.514,5.514,0,0,0-5.61-5.874A5.573,5.573,0,0,0,97.02-5.786a5.731,5.731,0,0,0,6.072,5.9,5.7,5.7,0,0,0,4.466-1.892l-.88-1.012a4.561,4.561,0,0,1-3.542,1.518A4.283,4.283,0,0,1,98.582-5.3h9.68C108.262-5.478,108.284-5.654,108.284-5.786Zm-5.61-4.532a4.025,4.025,0,0,1,4.114,3.85H98.582A4.019,4.019,0,0,1,102.674-10.318ZM115.28.11a5.1,5.1,0,0,0,4.532-2.288l-1.166-.792a3.914,3.914,0,0,1-3.366,1.694,4.24,4.24,0,0,1-4.378-4.51,4.252,4.252,0,0,1,4.378-4.51,3.934,3.934,0,0,1,3.366,1.716l1.166-.792a5.054,5.054,0,0,0-4.532-2.288,5.7,5.7,0,0,0-5.962,5.874A5.714,5.714,0,0,0,115.28.11Zm12.276-1.936a2.585,2.585,0,0,1-1.716.594,1.853,1.853,0,0,1-2-2.112v-6.908h3.52v-1.32h-3.52V-14.1h-1.562v2.53h-2.068v1.32h2.068v7A3.065,3.065,0,0,0,125.664.11,3.72,3.72,0,0,0,128.106-.7Zm12.078-3.96a5.514,5.514,0,0,0-5.61-5.874,5.573,5.573,0,0,0-5.654,5.874,5.731,5.731,0,0,0,6.072,5.9,5.7,5.7,0,0,0,4.466-1.892l-.88-1.012a4.561,4.561,0,0,1-3.542,1.518A4.283,4.283,0,0,1,129.932-5.3h9.68C139.612-5.478,139.634-5.654,139.634-5.786Zm-5.61-4.532a4.025,4.025,0,0,1,4.114,3.85h-8.206A4.019,4.019,0,0,1,134.024-10.318Zm16.808-6.006v6.952a5.054,5.054,0,0,0-4.4-2.288,5.6,5.6,0,0,0-5.764,5.874,5.616,5.616,0,0,0,5.764,5.9,5.013,5.013,0,0,0,4.466-2.4V0h1.5V-16.324ZM146.564-1.276a4.237,4.237,0,0,1-4.312-4.51,4.237,4.237,0,0,1,4.312-4.51,4.232,4.232,0,0,1,4.29,4.51A4.232,4.232,0,0,1,146.564-1.276Zm9.262-3.344h1.21l.33-10.78h-1.848Zm.616,4.73a1.136,1.136,0,0,0,1.144-1.144,1.1,1.1,0,0,0-1.144-1.122,1.123,1.123,0,0,0-1.166,1.122A1.155,1.155,0,0,0,156.442.11Z" transform="translate(288.856 381.974)" fill="#a2a9aa"/>
    <g id="Group_54" data-name="Group 54" transform="translate(154 279)">
      <circle id="Ellipse_11" data-name="Ellipse 11" cx="10.747" cy="10.747" r="10.747" transform="translate(23.883 95.532) rotate(-90)" fill="#a2a9aa"/>
      <path id="Union_5" data-name="Union 5" d="M23.883,34.631a10.711,10.711,0,0,1,.887-4.283,15.718,15.718,0,0,0-9.123-10.032,10.745,10.745,0,1,1,4.521-4.392c1.861,5.141,7.55,7.809,10.253,8.815a10.749,10.749,0,1,1-6.539,9.893Z" transform="translate(45.378 24.679) rotate(90)" fill="#1c7dec"/>
      <circle id="Ellipse_14" data-name="Ellipse 14" cx="10.747" cy="10.747" r="10.747" transform="translate(49.358 120.212) rotate(-90)" fill="#a2a9aa"/>
      <circle id="Ellipse_15" data-name="Ellipse 15" cx="10.747" cy="10.747" r="10.747" transform="translate(49.358 21.495) rotate(-90)" fill="#a2a9aa"/>
      <circle id="Ellipse_16" data-name="Ellipse 16" cx="10.747" cy="10.747" r="10.747" transform="translate(73.241 46.174) rotate(-90)" fill="#a2a9aa"/>
      <path id="Union_8" data-name="Union 8" d="M0,10.747a10.751,10.751,0,0,0,15.646,9.568A15.719,15.719,0,0,1,24.77,30.348a10.684,10.684,0,0,0-.848,3.363v0l-.005.067v0l0,.064v.007l0,.063v.008c0,.02,0,.04,0,.059V34l0,.057v.013c0,.018,0,.037,0,.055v.015c0,.018,0,.035,0,.053v.017c0,.018,0,.035,0,.053v.017c0,.018,0,.035,0,.052v.018c0,.018,0,.036,0,.054s0,.011,0,.017,0,.035,0,.052,0,.012,0,.019,0,.033,0,.05,0,.014,0,.021c0,.024,0,.047,0,.07s0,.047,0,.07c0,.007,0,.014,0,.022s0,.032,0,.048v.011c0,.043,0,.086,0,.128v.015c0,.018,0,.036,0,.055v.012c0,.019,0,.038,0,.057v.014c0,.019,0,.038,0,.056v.007c0,.021,0,.041,0,.062V35.2l0,.055v.017l0,.053v.006c0,.021,0,.042,0,.063v0l0,.066h0q0,.034.005.068v0a10.682,10.682,0,0,0,.819,3.307c-1.006,2.7-3.675,8.391-8.814,10.252a10.74,10.74,0,1,0,4.391,4.522,15.718,15.718,0,0,1,10.032-9.124q.183.08.369.152l.007,0,.051.02.017.007.041.016.024.009.033.012.035.013.022.008.042.015.017.006.049.017.008,0a10.672,10.672,0,0,0,2.332.536h0l.066.007h0l.064.007h0l.062.006H33.6l.059.005h.01l.058,0h.012l.055,0h.016l.052,0h.019l.049,0h.02l.049,0h.021l.047,0H34.1l.044,0h.028l.042,0h.419A10.747,10.747,0,0,0,42.366,27.17h0l-.025-.026-.02-.02-.077-.078-.013-.013-.013-.013-.078-.077-.02-.02-.026-.025h0a10.711,10.711,0,0,0-7.461-3.011h-.208a10.7,10.7,0,0,0-4,.854c-2.7-1.006-8.392-3.674-10.252-8.814A10.748,10.748,0,1,0,0,10.747Z" transform="translate(119.415 50.154) rotate(90)" fill="#1c7dec"/>
    </g>
  </g>
</svg>
