<?xml version="1.0" encoding="utf-8"?>
<!-- Generator: Adobe Illustrator 23.0.1, SVG Export Plug-In . SVG Version: 6.00 Build 0)  -->
<svg version="1.1" id="Layer_1" xmlns="http://www.w3.org/2000/svg" xmlns:xlink="http://www.w3.org/1999/xlink" x="0px" y="0px"
	 viewBox="0 0 397.3 101.4" style="enable-background:new 0 0 397.3 101.4;" xml:space="preserve">
<style type="text/css">
	.st0{fill:#073C5C;stroke:#073C5C;stroke-width:2;}
	.st1{fill:#A2A9AA;}
	.st2{fill:#1C7DEC;}
</style>
<g>
	<path id="Path_75" class="st0" d="M154.8,62.4v-5h-26.3c0.7-0.9,1.4-2.1,2.1-3.3L154.9,13V8.2H123v5h24.8c-0.6,0.9-1.3,2-2.1,3.3
		l-24.4,41.2v4.7H154.8z M190.4,62.4V32.3c0-8.5-5.5-11.4-14.4-11.4c-5.1,0-10,1.4-14.2,4.2l3.1,4c3.2-2.1,6.9-3.2,10.7-3.3
		c5.5,0,8.1,2.3,8.1,7.1v5.7c-3-1.3-6.2-1.9-9.4-1.9c-8.9,0-15.5,4.2-15.5,13.3c0,9.3,5.7,13.3,13.2,13.3c4.3,0,8.5-1.5,11.7-4.3
		v3.4L190.4,62.4z M183.6,54.5c-2.8,2.7-6.6,4.2-10.6,4.2c-5,0-7.6-3.4-7.6-8.9c0-5.2,2.7-8.4,8.7-8.4c3.2-0.1,6.5,0.5,9.5,1.8
		L183.6,54.5z M208.2,10.2c0-2.1-2.1-3.9-4.6-3.9c-2.7,0-4.9,1.8-4.9,3.9s2.3,3.9,4.9,3.9C206.2,14,208.2,12.3,208.2,10.2z
		 M206.8,62.4V21.8H200v40.7H206.8z M248.5,62.4V34.6c0-9-4.7-13.6-13.6-13.6c-4.2-0.1-8.2,1.4-11.3,4.3v-3.4h-6.8v40.7h6.8v-32
		c2.4-2.8,5.8-4.6,9.6-4.7c5.9,0,8.5,2.8,8.5,9.5v27.3H248.5z M288.7,41.8c0-13-5.7-20.9-16.4-20.9c-10.3,0-17,7.7-17,21.2
		c0,14.5,7.6,21.1,16.7,21.1c5.7,0.1,11.2-2.1,15.3-6l-4.2-3.4c-3.6,3.2-6.6,4.6-10.8,4.6c-6.5,0-9.8-5.7-10.4-14.5h26.6
		C288.7,43.2,288.9,42.5,288.7,41.8L288.7,41.8z M282.2,39.2h-20c0.6-9.3,4.5-13.4,10-13.4C278.7,25.8,281.7,31.4,282.2,39.2
		L282.2,39.2z M319.5,21.8c-2-0.7-4.3-0.9-6.4-0.8c-3.8,0-7.5,1.5-10.1,4.4v-3.4h-6.8v40.7h6.8v-32c1.9-2.7,5-4.4,8.3-4.6
		c2.1-0.1,4.3,0.4,6.3,1.2L319.5,21.8z M353.9,58.8v-37h-6.8v3.1c-3-2.6-6.9-4-10.8-3.9c-9.8,0-15.5,7.6-15.5,21.6
		c0,13.6,5.2,20.9,14.8,20.9c4.3,0,8.3-1.5,11.5-4.4v1.7c0,7.7-3.3,11.2-16.4,12.6l2.1,4.2C348.6,75.6,353.9,70.3,353.9,58.8z
		 M347.1,54.5c-2.7,2.5-6.2,3.9-9.8,4c-6.4,0-9.6-5.2-9.6-16.1c0-10.2,2.6-16.6,9.3-16.6c3.8,0,7.6,1.5,10.3,4.2L347.1,54.5z
		 M395,21.8h-7.2l-8.1,26.5c-0.6,1.9-1.9,6.8-2.3,8.4c-0.4-1.7-1.8-6.6-2.4-8.4l-8.2-26.5h-7.2L374,62.9l-5.5,13.9h6.8L395,21.8z"/>
	<path id="Path_77" class="st1" d="M135.1,91.9c-1.4,0.9-3.1,1.4-4.7,1.4c-4.2,0.1-7.6-3.1-7.8-7.1c0-0.1,0-0.2,0-0.4
		c0-4.2,3.2-7.5,7.4-7.6c0.1,0,0.4,0,0.5,0c2-0.1,4,0.7,5.5,2.1l1.2-1.2c-1.8-1.8-4.3-2.7-6.8-2.6c-5.6,0-9.6,3.9-9.6,9.3
		c-0.1,5.1,4,9.3,9,9.3c0.2,0,0.4,0,0.6,0c2.5,0.1,4.9-0.7,6.8-2.4v-7h-1.9V91.9z M152.9,87.9c0.2-3.6-2.5-6.8-6-7
		c-0.2,0-0.4,0-0.6,0c-3.7,0-6.6,2.8-6.8,6.5c0,0.1,0,0.4,0,0.5c-0.1,3.8,2.8,6.9,6.6,7c0.2,0,0.4,0,0.6,0c2,0.1,3.9-0.7,5.3-2.3
		l-1.1-1.2c-1.1,1.2-2.6,1.9-4.2,1.8c-2.8,0.2-5.2-1.9-5.5-4.7l0,0h11.5C152.8,88.3,152.9,88.1,152.9,87.9z M146.3,82.6
		c2.6-0.1,4.7,2,4.9,4.5h-9.7C141.5,84.5,143.7,82.5,146.3,82.6z M162.1,92.7c-0.6,0.5-1.3,0.7-2,0.7c-1.2,0.1-2.3-0.8-2.4-2
		c0-0.1,0-0.4,0-0.5v-8.2h4.2v-1.5h-4.2v-3h-1.9v3h-2.5v1.5h2.5V91c-0.2,2,1.3,3.8,3.2,4c0.2,0,0.5,0,0.8,0c1.1,0,2.1-0.4,2.8-0.9
		L162.1,92.7z M178.9,94.9c2.5,0.1,5-0.8,6.8-2.7l-1.2-1.2c-1.4,1.4-3.3,2.3-5.5,2.1c-4.2,0.1-7.6-3.1-7.7-7.2c0-0.1,0-0.2,0-0.4
		c-0.1-4.2,3.2-7.5,7.4-7.6c0.1,0,0.2,0,0.4,0c2-0.1,4,0.7,5.5,2.1l1.2-1.2c-1.8-1.8-4.2-2.7-6.6-2.6c-5.1-0.2-9.4,3.7-9.6,8.8
		c0,0.2,0,0.4,0,0.6c-0.1,5.1,3.9,9.3,9,9.3C178.5,94.9,178.8,94.9,178.9,94.9z M193.1,94.9c3.7,0.1,6.9-2.8,7-6.5
		c0-0.1,0-0.4,0-0.5c0.1-3.7-2.7-6.9-6.5-7c-0.1,0-0.4,0-0.5,0c-3.7-0.1-6.9,2.7-7,6.5c0,0.1,0,0.4,0,0.5c-0.1,3.8,2.8,6.9,6.5,7
		C192.9,94.9,193,94.9,193.1,94.9z M193.1,93.3c-2.7,0-5.1-2.1-5.1-5c0-0.1,0-0.2,0-0.5c-0.2-2.7,1.9-5.2,4.7-5.3c0.1,0,0.2,0,0.5,0
		c2.7,0,5.1,2.1,5.1,4.9c0,0.1,0,0.2,0,0.5c0.2,2.7-1.9,5.1-4.6,5.3C193.5,93.3,193.4,93.3,193.1,93.3z M209.7,80.9
		c-2.1-0.1-4,0.8-5.2,2.6v-2.5h-1.8v13.8h1.9v-7.2c0-3.1,1.9-5,4.7-5c2.6,0,4.2,1.5,4.2,4.4v7.8h1.9v-7.9
		C215.4,83,213.1,80.9,209.7,80.9z M226.2,80.9c-2.1-0.1-4,0.8-5.2,2.6v-2.5h-1.8v13.8h1.9v-7.2c0-3.1,1.9-5,4.7-5
		c2.6,0,4.2,1.5,4.2,4.4v7.8h1.9v-7.9C231.9,83,229.5,80.9,226.2,80.9L226.2,80.9z M247.8,87.9c0.2-3.6-2.5-6.8-6-7
		c-0.2,0-0.4,0-0.6,0c-3.7,0-6.6,2.8-6.8,6.5c0,0.1,0,0.4,0,0.5c-0.1,3.8,2.8,6.9,6.5,7c0.2,0,0.4,0,0.6,0c2,0.1,3.9-0.7,5.3-2.3
		l-1.1-1.2c-1.1,1.2-2.6,1.9-4.2,1.8c-2.8,0.2-5.2-1.9-5.5-4.7l0,0h11.5C247.7,88.3,247.8,88.1,247.8,87.9L247.8,87.9z M241.1,82.6
		c2.6-0.1,4.7,2,4.9,4.5h-9.7C236.3,84.5,238.6,82.5,241.1,82.6L241.1,82.6z M256.1,94.9c2.1,0.1,4.2-0.9,5.3-2.7l-1.4-0.9
		c-0.9,1.3-2.4,2-4,2c-2.7,0.1-5.1-2.1-5.2-4.9c0-0.1,0-0.4,0-0.5c-0.1-2.7,1.9-5.2,4.7-5.3c0.1,0,0.4,0,0.5,0c1.5,0,3.1,0.7,4,2
		l1.4-0.9c-1.2-1.8-3.2-2.8-5.3-2.7c-3.7-0.1-6.9,2.7-7.1,6.4c0,0.1,0,0.4,0,0.5c-0.1,3.8,2.8,6.9,6.5,7
		C255.8,94.9,255.9,94.9,256.1,94.9z M270.6,92.7c-0.6,0.5-1.3,0.7-2,0.7c-1.2,0.1-2.3-0.8-2.4-2c0-0.1,0-0.4,0-0.5v-8.2h4.2v-1.5
		h-4.2v-3h-1.9v3h-2.5v1.5h2.5V91c-0.2,2,1.3,3.8,3.2,4c0.2,0,0.5,0,0.8,0c1.1,0,2.1-0.4,2.8-0.9L270.6,92.7z M284.9,87.9
		c0.2-3.6-2.5-6.8-6-7c-0.2,0-0.4,0-0.6,0c-3.7,0-6.6,2.8-6.8,6.5c0,0.1,0,0.4,0,0.5c-0.1,3.8,2.8,6.9,6.5,7c0.2,0,0.4,0,0.6,0
		c2,0.1,3.9-0.7,5.3-2.3l-1.1-1.2c-1.1,1.2-2.6,1.9-4.2,1.8c-2.8,0.2-5.2-1.9-5.5-4.7l0,0h11.5C284.9,88.3,284.9,88.1,284.9,87.9z
		 M278.3,82.6c2.6-0.1,4.7,2,4.9,4.5h-9.7C273.6,84.5,275.7,82.5,278.3,82.6z M298.2,75.5v8.3c-1.2-1.8-3.1-2.7-5.2-2.7
		c-3.7-0.1-6.8,2.7-6.9,6.4c0,0.1,0,0.4,0,0.5c-0.2,3.7,2.6,6.8,6.3,7c0.1,0,0.4,0,0.5,0c2.1,0.1,4.2-1.1,5.3-2.8v2.7h1.8V75.5
		H298.2z M293.1,93.3c-2.7,0-5.1-2.1-5.1-5c0-0.1,0-0.2,0-0.5c-0.2-2.7,1.9-5.2,4.7-5.3c0.1,0,0.2,0,0.5,0c2.7,0,5.1,2.1,5.1,5
		c0,0.1,0,0.2,0,0.4c0.2,2.7-1.9,5.1-4.6,5.3C293.5,93.3,293.4,93.3,293.1,93.3z M304.2,89.4h1.4l0.4-12.8h-2.1L304.2,89.4z
		 M304.9,94.9c0.7,0,1.3-0.6,1.3-1.3l0,0c0-0.7-0.6-1.3-1.3-1.3c0,0,0,0-0.1,0c-0.7,0-1.3,0.6-1.4,1.3l0,0
		C303.6,94.3,304.2,94.9,304.9,94.9L304.9,94.9L304.9,94.9z"/>
</g>
<g id="Group_54" transform="translate(154 279)">
	<circle id="Ellipse_11" class="st1" cx="-123.4" cy="-207.7" r="8.9"/>
	<path id="Union_5" class="st2" d="M-143.3-237.9c1.2,0,2.5,0.2,3.5,0.7c3.8-1.1,6.8-3.9,8.4-7.5c-2.3-4.3-0.5-9.8,3.9-12
		c4.3-2.3,9.8-0.5,12,3.9c2.3,4.3,0.5,9.8-3.9,12c-2.7,1.3-5.8,1.3-8.4-0.1c-4.2,1.5-6.5,6.3-7.3,8.5c2,4.5-0.2,9.8-4.8,11.7
		c-4.5,1.9-9.8-0.2-11.7-4.8c-2-4.5,0.2-9.8,4.8-11.7C-145.7-237.6-144.4-237.9-143.3-237.9L-143.3-237.9z"/>
	<circle id="Ellipse_14" class="st1" cx="-102.3" cy="-187.3" r="8.9"/>
	<circle id="Ellipse_15" class="st1" cx="-102.3" cy="-269.3" r="8.9"/>
	<circle id="Ellipse_16" class="st1" cx="-82.4" cy="-248.7" r="8.9"/>
	<path id="Union_8" class="st2" d="M-61.9-236.6c-5,0-8.9,4-8.9,9c0,1.4,0.3,2.8,0.9,4c-1.4,3.6-4.5,6.4-8.4,7.5
		c-0.9-0.4-1.9-0.6-2.8-0.7l0,0h-0.1l0,0h-0.1l0,0h-0.1l0,0l0,0l0,0l0,0l0,0l0,0l0,0l0,0l0,0l0,0l0,0l0,0l0,0l0,0l0,0l0,0l0,0l0,0
		l0,0c0,0,0,0-0.1,0c0,0,0,0-0.1,0l0,0l0,0l0,0h-0.1l0,0l0,0l0,0l0,0l0,0l0,0l0,0l0,0l0,0l0,0l0,0l0,0l0,0c0,0,0,0-0.1,0l0,0h-0.1
		l0,0c0,0,0,0-0.1,0l0,0c-0.9,0.1-1.9,0.3-2.8,0.7c-2.3-0.8-6.9-3.1-8.5-7.3c2.4-4.3,0.8-9.7-3.5-12.1c-4.3-2.4-9.7-0.8-12.1,3.5
		c-2.4,4.3-0.8,9.7,3.5,12.1c2.6,1.4,5.7,1.4,8.4,0.1c3.6,1.4,6.4,4.5,7.5,8.4c0,0.1-0.1,0.2-0.1,0.3l0,0l0,0l0,0l0,0l0,0l0,0l0,0
		l0,0l0,0l0,0l0,0l0,0c-0.2,0.6-0.4,1.2-0.4,2l0,0v0.1l0,0v0.1l0,0l0,0l0,0l0,0l0,0l0,0l0,0l0,0l0,0l0,0l0,0l0,0l0,0l0,0l0,0l0,0
		l0,0l0,0l0,0l0,0v0.3c0,5,4,8.9,9,8.9c2.3,0,4.4-0.9,6.1-2.5l0,0l0,0l0,0l0.1-0.1l0,0l0,0l0.1-0.1l0,0l0,0l0,0
		c1.7-1.7,2.5-3.9,2.5-6.2v-0.2c0-1.1-0.3-2.3-0.7-3.3c0.8-2.3,3.1-7,7.3-8.5c4.3,2.4,9.7,0.8,12.1-3.5c2.4-4.3,0.8-9.7-3.5-12.1
		C-58.9-236.1-60.4-236.6-61.9-236.6z"/>
</g>
</svg>
