<svg xmlns="http://www.w3.org/2000/svg" width="53.422" height="33.401" viewBox="0 0 53.422 33.401">
  <g id="full-battery" transform="translate(0 -4)">
    <path id="Path_68" data-name="Path 68" d="M43.421,37.4H5.567A5.573,5.573,0,0,1,0,31.834V9.567A5.573,5.573,0,0,1,5.567,4H43.421a5.573,5.573,0,0,1,5.567,5.567V10.68h1.093a3.344,3.344,0,0,1,3.34,3.34v13.36a3.344,3.344,0,0,1-3.34,3.34H48.988v1.113A5.573,5.573,0,0,1,43.421,37.4ZM5.567,6.227a3.344,3.344,0,0,0-3.34,3.34V31.834a3.344,3.344,0,0,0,3.34,3.34H43.421a3.344,3.344,0,0,0,3.34-3.34V29.607a1.114,1.114,0,0,1,1.113-1.113h2.207a1.115,1.115,0,0,0,1.113-1.113V14.02a1.115,1.115,0,0,0-1.113-1.113H47.875a1.114,1.114,0,0,1-1.113-1.113V9.567a3.344,3.344,0,0,0-3.34-3.34Z" fill="#58e2c2"/>
    <path id="Path_69" data-name="Path 69" d="M10.794,27.041H4.113A1.114,1.114,0,0,1,3,25.927V8.113A1.114,1.114,0,0,1,4.113,7h6.68a1.114,1.114,0,0,1,1.113,1.113V25.927A1.114,1.114,0,0,1,10.794,27.041ZM5.227,24.814H9.68V9.227H5.227Z" transform="translate(3.68 3.68)" fill="#58e2c2"/>
    <path id="Path_70" data-name="Path 70" d="M16.794,27.041h-6.68A1.114,1.114,0,0,1,9,25.927V8.113A1.114,1.114,0,0,1,10.113,7h6.68a1.114,1.114,0,0,1,1.113,1.113V25.927A1.114,1.114,0,0,1,16.794,27.041Zm-5.567-2.227H15.68V9.227H11.227Z" transform="translate(11.041 3.68)" fill="#58e2c2"/>
    <path id="Path_71" data-name="Path 71" d="M22.794,27.041h-6.68A1.114,1.114,0,0,1,15,25.927V8.113A1.114,1.114,0,0,1,16.113,7h6.68a1.114,1.114,0,0,1,1.113,1.113V25.927A1.114,1.114,0,0,1,22.794,27.041Zm-5.567-2.227H21.68V9.227H17.227Z" transform="translate(18.401 3.68)" fill="#58e2c2"/>
  </g>
</svg>
