<svg xmlns="http://www.w3.org/2000/svg" width="10.641" height="14.898" viewBox="0 0 10.641 14.898">
  <g id="Group_59" data-name="Group 59" transform="translate(-503.773 -411.231)">
    <g id="Group_17" data-name="Group 17" transform="translate(503.773 411.231)">
      <path id="Path_12" data-name="Path 12" d="M46.974,116.886H44.491a.355.355,0,0,1-.355-.355v-1.419a.355.355,0,0,1,.355-.355h2.483a.355.355,0,0,1,.355.355v1.419A.355.355,0,0,1,46.974,116.886Zm-2.128-.709H46.62v-.709H44.846Zm0,0" transform="translate(-44.137 -114.758)" fill="#58e3c3"/>
      <path id="Path_13" data-name="Path 13" d="M108.767,116.886h-2.483a.355.355,0,0,1-.355-.355v-1.419a.355.355,0,0,1,.355-.355h2.483a.355.355,0,0,1,.355.355v1.419A.355.355,0,0,1,108.767,116.886Zm-2.128-.709h1.773v-.709h-1.773Zm0,0" transform="translate(-103.447 -114.758)" fill="#58e3c3"/>
      <path id="Path_14" data-name="Path 14" d="M170.56,116.886h-2.483a.355.355,0,0,1-.355-.355v-1.419a.355.355,0,0,1,.355-.355h2.483a.355.355,0,0,1,.355.355v1.419A.355.355,0,0,1,170.56,116.886Zm-2.128-.709h1.773v-.709h-1.773Zm0,0" transform="translate(-162.757 -114.758)" fill="#58e3c3"/>
      <path id="Path_15" data-name="Path 15" d="M232.353,116.886H229.87a.355.355,0,0,1-.355-.355v-1.419a.355.355,0,0,1,.355-.355h2.483a.355.355,0,0,1,.355.355v1.419A.355.355,0,0,1,232.353,116.886Zm-2.128-.709H232v-.709h-1.773Zm0,0" transform="translate(-222.067 -114.758)" fill="#58e3c3"/>
      <path id="Path_16" data-name="Path 16" d="M46.974,152.2H44.491a.355.355,0,0,1-.355-.355v-1.419a.355.355,0,0,1,.355-.355h2.483a.355.355,0,0,1,.355.355v1.419A.355.355,0,0,1,46.974,152.2Zm-2.128-.709H46.62v-.709H44.846Zm0,0" transform="translate(-44.137 -148.651)" fill="#58e3c3"/>
      <path id="Path_17" data-name="Path 17" d="M108.767,152.2h-2.483a.355.355,0,0,1-.355-.355v-1.419a.355.355,0,0,1,.355-.355h2.483a.355.355,0,0,1,.355.355v1.419A.355.355,0,0,1,108.767,152.2Zm-2.128-.709h1.773v-.709h-1.773Zm0,0" transform="translate(-103.447 -148.651)" fill="#58e3c3"/>
      <path id="Path_18" data-name="Path 18" d="M170.56,152.2h-2.483a.355.355,0,0,1-.355-.355v-1.419a.355.355,0,0,1,.355-.355h2.483a.355.355,0,0,1,.355.355v1.419A.355.355,0,0,1,170.56,152.2Zm-2.128-.709h1.773v-.709h-1.773Zm0,0" transform="translate(-162.757 -148.651)" fill="#58e3c3"/>
      <path id="Path_19" data-name="Path 19" d="M232.353,152.2H229.87a.355.355,0,0,1-.355-.355v-1.419a.355.355,0,0,1,.355-.355h2.483a.355.355,0,0,1,.355.355v1.419A.355.355,0,0,1,232.353,152.2Zm-2.128-.709H232v-.709h-1.773Zm0,0" transform="translate(-222.067 -148.651)" fill="#58e3c3"/>
      <path id="Path_20" data-name="Path 20" d="M46.974,187.507H44.491a.355.355,0,0,1-.355-.355v-1.419a.355.355,0,0,1,.355-.355h2.483a.355.355,0,0,1,.355.355v1.419A.355.355,0,0,1,46.974,187.507Zm-2.128-.709H46.62v-.709H44.846Zm0,0" transform="translate(-44.137 -182.541)" fill="#58e3c3"/>
      <path id="Path_21" data-name="Path 21" d="M108.767,187.507h-2.483a.355.355,0,0,1-.355-.355v-1.419a.355.355,0,0,1,.355-.355h2.483a.355.355,0,0,1,.355.355v1.419A.355.355,0,0,1,108.767,187.507Zm-2.128-.709h1.773v-.709h-1.773Zm0,0" transform="translate(-103.447 -182.541)" fill="#58e3c3"/>
      <path id="Path_22" data-name="Path 22" d="M170.56,187.507h-2.483a.355.355,0,0,1-.355-.355v-1.419a.355.355,0,0,1,.355-.355h2.483a.355.355,0,0,1,.355.355v1.419A.355.355,0,0,1,170.56,187.507Zm-2.128-.709h1.773v-.709h-1.773Zm0,0" transform="translate(-162.757 -182.541)" fill="#58e3c3"/>
      <path id="Path_23" data-name="Path 23" d="M232.353,187.507H229.87a.355.355,0,0,1-.355-.355v-1.419a.355.355,0,0,1,.355-.355h2.483a.355.355,0,0,1,.355.355v1.419A.355.355,0,0,1,232.353,187.507Zm-2.128-.709H232v-.709h-1.773Zm0,0" transform="translate(-222.067 -182.541)" fill="#58e3c3"/>
      <path id="Path_24" data-name="Path 24" d="M46.974,222.82H44.491a.355.355,0,0,1-.355-.355v-1.419a.355.355,0,0,1,.355-.355h2.483a.355.355,0,0,1,.355.355v1.419A.355.355,0,0,1,46.974,222.82Zm-2.128-.709H46.62V221.4H44.846Zm0,0" transform="translate(-44.137 -216.435)" fill="#58e3c3"/>
      <path id="Path_25" data-name="Path 25" d="M108.767,222.82h-2.483a.355.355,0,0,1-.355-.355v-1.419a.355.355,0,0,1,.355-.355h2.483a.355.355,0,0,1,.355.355v1.419A.355.355,0,0,1,108.767,222.82Zm-2.128-.709h1.773V221.4h-1.773Zm0,0" transform="translate(-103.447 -216.435)" fill="#58e3c3"/>
      <path id="Path_26" data-name="Path 26" d="M170.56,222.82h-2.483a.355.355,0,0,1-.355-.355v-1.419a.355.355,0,0,1,.355-.355h2.483a.355.355,0,0,1,.355.355v1.419A.355.355,0,0,1,170.56,222.82Zm-2.128-.709h1.773V221.4h-1.773Zm0,0" transform="translate(-162.757 -216.435)" fill="#58e3c3"/>
      <path id="Path_27" data-name="Path 27" d="M232.353,222.82H229.87a.355.355,0,0,1-.355-.355v-1.419a.355.355,0,0,1,.355-.355h2.483a.355.355,0,0,1,.355.355v1.419A.355.355,0,0,1,232.353,222.82Zm-2.128-.709H232V221.4h-1.773Zm0,0" transform="translate(-222.067 -216.435)" fill="#58e3c3"/>
      <path id="Path_28" data-name="Path 28" d="M46.974,258.128H44.491a.355.355,0,0,1-.355-.355v-1.419a.355.355,0,0,1,.355-.355h2.483a.355.355,0,0,1,.355.355v1.419A.355.355,0,0,1,46.974,258.128Zm-2.128-.709H46.62v-.709H44.846Zm0,0" transform="translate(-44.137 -250.325)" fill="#58e3c3"/>
      <path id="Path_29" data-name="Path 29" d="M108.767,258.128h-2.483a.355.355,0,0,1-.355-.355v-1.419a.355.355,0,0,1,.355-.355h2.483a.355.355,0,0,1,.355.355v1.419A.355.355,0,0,1,108.767,258.128Zm-2.128-.709h1.773v-.709h-1.773Zm0,0" transform="translate(-103.447 -250.325)" fill="#58e3c3"/>
      <path id="Path_30" data-name="Path 30" d="M170.56,258.128h-2.483a.355.355,0,0,1-.355-.355v-1.419a.355.355,0,0,1,.355-.355h2.483a.355.355,0,0,1,.355.355v1.419A.355.355,0,0,1,170.56,258.128Zm-2.128-.709h1.773v-.709h-1.773Zm0,0" transform="translate(-162.757 -250.325)" fill="#58e3c3"/>
      <path id="Path_31" data-name="Path 31" d="M232.353,258.128H229.87a.355.355,0,0,1-.355-.355v-1.419a.355.355,0,0,1,.355-.355h2.483a.355.355,0,0,1,.355.355v1.419A.355.355,0,0,1,232.353,258.128Zm-2.128-.709H232v-.709h-1.773Zm0,0" transform="translate(-222.067 -250.325)" fill="#58e3c3"/>
    </g>
    <path id="Path_32" data-name="Path 32" d="M46.62,383.842H45.2a1.069,1.069,0,0,1-1.067-1.067v-2.122a1.069,1.069,0,0,1,1.067-1.067H46.62a.355.355,0,0,1,0,.709H45.2a.358.358,0,0,0-.358.358v2.122a.358.358,0,0,0,.358.358H46.62a.355.355,0,1,1,0,.709Zm0,0" transform="translate(459.637 42.286)" fill="#fff"/>
    <path id="Path_33" data-name="Path 33" d="M134.01,383.842h-1.241a.355.355,0,1,1,0-.709h1.241a.532.532,0,1,0,0-1.064h-.355a1.241,1.241,0,0,1,0-2.483H134.9a.355.355,0,1,1,0,.709h-1.242a.532.532,0,0,0,0,1.064h.355a1.241,1.241,0,1,1,0,2.483Zm0,0" transform="translate(374.906 42.286)" fill="#fff"/>
    <path id="Path_34" data-name="Path 34" d="M222.457,383.842a.356.356,0,0,1-.33-.223l-1.419-3.547a.355.355,0,0,1,.659-.264l1.09,2.724,1.089-2.724a.355.355,0,1,1,.659.264l-1.419,3.547A.354.354,0,0,1,222.457,383.842Zm0,0" transform="translate(290.185 42.287)" fill="#fff"/>
  </g>
</svg>
