<svg xmlns="http://www.w3.org/2000/svg" width="48.013" height="53.194" viewBox="0 0 48.013 53.194">
  <g id="humidity" transform="translate(-24.934 0.001)">
    <path id="Path_62" data-name="Path 62" d="M72.947,25.81C72.947,18.475,62.455,5.8,57.46.489A1.559,1.559,0,0,0,55.183.5c-.147.159-3.3,3.565-6.721,8.069C46.536,6.3,45.183,4.857,45.084,4.751a1.559,1.559,0,0,0-2.274,0A136.078,136.078,0,0,0,33.97,15.4c-6,8.052-9.036,14.335-9.036,18.675a19,19,0,0,0,36.548,7.386A16.553,16.553,0,0,0,72.947,25.81Zm-29,24.266a15.966,15.966,0,0,1-15.9-16c0-6.863,10.584-20.048,15.9-25.953,4.749,5.278,15.9,18.887,15.9,25.953a16.017,16.017,0,0,1-.963,5.486,1.579,1.579,0,0,0-.057.151A15.926,15.926,0,0,1,43.947,50.076Zm18.687-12.47a19.247,19.247,0,0,0,.326-3.529c0-7.011-8-17.588-12.448-23.05,2.28-3.046,4.53-5.68,5.829-7.153,5.809,6.421,13.49,16.7,13.49,21.938A13.388,13.388,0,0,1,62.633,37.606Z" transform="translate(0 0)" fill="#f7e43b"/>
    <path id="Path_63" data-name="Path 63" d="M155.364,257.453l-9.974,9.974a1.558,1.558,0,0,0,2.2,2.2l9.974-9.974a1.558,1.558,0,1,0-2.2-2.2Z" transform="translate(-107.532 -230.297)" fill="#f7e43b"/>
    <path id="Path_64" data-name="Path 64" d="M152.976,266.868a1.558,1.558,0,1,0,1.075-1.8A1.559,1.559,0,0,0,152.976,266.868Z" transform="translate(-114.714 -237.474)" fill="#f7e43b"/>
    <path id="Path_65" data-name="Path 65" d="M236.031,346.259a1.558,1.558,0,1,0-1.076,1.8A1.559,1.559,0,0,0,236.031,346.259Z" transform="translate(-186.4 -309.163)" fill="#f7e43b"/>
  </g>
</svg>
