<svg id="print" xmlns="http://www.w3.org/2000/svg" width="13.415" height="13.415" viewBox="0 0 13.415 13.415">
  <path id="Path_45" data-name="Path 45" d="M12.017,12.707H10.34a.279.279,0,0,1,0-.559h1.677a.839.839,0,0,0,.838-.838V7.4a.839.839,0,0,0-.838-.838H1.4A.839.839,0,0,0,.559,7.4V11.31a.839.839,0,0,0,.838.838H3.074a.279.279,0,0,1,0,.559H1.4A1.4,1.4,0,0,1,0,11.31V7.4A1.4,1.4,0,0,1,1.4,6h10.62a1.4,1.4,0,0,1,1.4,1.4V11.31A1.4,1.4,0,0,1,12.017,12.707Z" transform="translate(0 -2.646)" fill="#f7e53b"/>
  <path id="Path_46" data-name="Path 46" d="M11.633,20.559H8.279a.279.279,0,0,1,0-.559h3.354a.279.279,0,1,1,0,.559Z" transform="translate(-3.528 -8.821)" fill="#f7e53b"/>
  <path id="Path_47" data-name="Path 47" d="M11.633,18.559H8.279a.279.279,0,1,1,0-.559h3.354a.279.279,0,1,1,0,.559Z" transform="translate(-3.528 -7.939)" fill="#f7e53b"/>
  <path id="Path_48" data-name="Path 48" d="M9.4,16.559H8.279a.279.279,0,1,1,0-.559H9.4a.279.279,0,1,1,0,.559Z" transform="translate(-3.528 -7.057)" fill="#f7e53b"/>
  <path id="Path_49" data-name="Path 49" d="M12.546,3.913a.28.28,0,0,1-.279-.279V1.4a.839.839,0,0,0-.838-.838H6.4a.839.839,0,0,0-.838.838V3.633a.279.279,0,0,1-.559,0V1.4A1.4,1.4,0,0,1,6.4,0h5.031a1.4,1.4,0,0,1,1.4,1.4V3.633A.28.28,0,0,1,12.546,3.913Z" transform="translate(-2.205)" fill="#f7e53b"/>
  <path id="Path_50" data-name="Path 50" d="M11.428,19.148H6.4a1.4,1.4,0,0,1-1.4-1.4V13.279A.28.28,0,0,1,5.279,13h7.266a.28.28,0,0,1,.279.279v4.472A1.4,1.4,0,0,1,11.428,19.148ZM5.559,13.559v4.192a.839.839,0,0,0,.838.838h5.031a.839.839,0,0,0,.838-.838V13.559Z" transform="translate(-2.205 -5.734)" fill="#f7e53b"/>
</svg>
